# xmcd CD database file
#
# Track frame offsets:
#	150
#	28714
#	64432
#	87533
#	111113
#	132644
#	164869
#	204766
#
# Disc length: 3162 seconds
#
# Revision: 0
# Processed by: cddbd v1.5.2PL0 Copyright (c) Steve Scherf et al.
# Submitted via: CDex 1.51
#
DISCID=780c5808
DTITLE=The Amazing Keystone Jazz Big Band - Live Jazz à Vienne 04/07/11
DYEAR=2011
DGENRE=Jazz
TTITLE0=Joshua (Live)
TTITLE1=Strike On The Blue Line (Live)
TTITLE2=Born To Be Blue ( Live)
TTITLE3=If I Were A Bell (Live)
TTITLE4=Daahoud (Live)
TTITLE5=Substitution (Live)
TTITLE6=New-Orleans Drunk Party (Live)
TTITLE7=Exactly Like You (Live)
EXTD=YEAR: 2011
EXTT0=
EXTT1=
EXTT2=
EXTT3=
EXTT4=
EXTT5=
EXTT6=
EXTT7=
PLAYORDER=
